<svg version="1.1" id="Layer_1" xmlns="http://www.w3.org/2000/svg" xmlns:xlink="http://www.w3.org/1999/xlink" x="0px" y="0px"
	 width="100%" viewBox="0 0 454 536" xml:space="preserve">

<path fill="#DCDCDC" opacity="1.000000" stroke="none" 
	d="
M273.000000,81.929688 
	C287.482208,82.184624 301.499512,81.922150 315.434967,82.866722 
	C325.629730,83.557747 329.660736,88.278633 330.979553,98.531799 
	C331.572754,103.143723 331.853729,107.826759 331.861359,112.478203 
	C331.927673,152.974777 331.896637,193.471512 331.905334,233.968201 
	C331.906067,237.467407 331.904602,240.969711 332.041077,244.465225 
	C332.482849,255.779236 335.605774,259.427582 346.677399,261.735870 
	C350.255829,262.481903 353.904022,263.001404 357.390045,264.055328 
	C361.860016,265.406738 364.858063,268.342987 365.273346,273.292053 
	C365.565094,276.768799 366.015198,280.250458 366.019104,283.730347 
	C366.069916,328.893250 366.056824,374.056244 366.044189,419.219208 
	C366.043518,421.550201 366.065216,423.899963 365.798706,426.208954 
	C364.202606,440.039307 359.325104,444.729645 345.374237,445.889954 
	C343.053864,446.082916 340.711853,446.061707 338.379822,446.061981 
	C266.719025,446.070129 195.058197,446.082550 123.397430,446.031281 
	C119.418808,446.028442 115.399055,445.753235 111.470306,445.142548 
	C101.485207,443.590393 97.282433,439.211609 96.038513,429.133514 
	C95.550079,425.176239 95.389572,421.156464 95.385597,417.164825 
	C95.341698,373.001831 95.250114,328.838348 95.414932,284.675903 
	C95.474777,268.642853 95.384354,264.682312 114.270653,261.698822 
	C125.803162,259.877014 128.876190,256.463837 128.966583,244.750061 
	C129.302200,201.258804 129.260605,157.764679 129.395340,114.271729 
	C129.408737,109.942848 129.520615,105.605019 129.824265,101.288048 
	C130.692551,88.944107 134.709793,84.561218 147.064590,82.667130 
	C150.665894,82.115013 154.358383,81.965012 158.009506,81.960342 
	C196.172943,81.911560 234.336487,81.929916 273.000000,81.929688 
M216.499893,402.215240 
	C234.146347,402.136230 251.794098,402.161621 269.438843,401.944031 
	C282.737000,401.780029 287.195953,397.333954 287.905731,384.107025 
	C288.003845,382.279205 288.020203,380.445465 288.023224,378.614349 
	C288.060577,355.975067 288.149902,333.335541 288.069275,310.696655 
	C288.052155,305.891846 287.740784,301.035034 286.971893,296.298431 
	C285.811981,289.152863 281.295166,285.261169 274.191467,284.990845 
	C264.054169,284.605103 253.907227,284.202545 243.766205,284.244141 
	C224.465942,284.323334 205.163345,284.567688 185.869400,285.050415 
	C179.145752,285.218628 174.116791,290.467529 174.036270,297.115814 
	C173.774139,318.754181 173.712845,340.395416 173.659821,362.035736 
	C173.638245,370.839569 173.434586,379.672516 174.056625,388.439484 
	C174.595276,396.030884 178.121429,400.667328 185.610397,401.154724 
	C195.554459,401.801880 205.535004,401.888031 216.499893,402.215240 
M286.702301,229.882263 
	C287.138916,225.922806 287.932922,221.965179 287.953308,218.003586 
	C288.073242,194.686874 288.100159,171.368835 287.985260,148.052078 
	C287.896423,130.025391 283.992218,126.099480 265.880402,125.987320 
	C242.398407,125.841904 218.914719,125.906509 195.432129,125.988831 
	C191.960754,126.000999 188.442307,126.347511 185.031525,126.993073 
	C178.117233,128.301743 175.294281,131.241364 174.179276,138.183624 
	C173.627350,141.619949 173.317810,145.131653 173.300674,148.611252 
	C173.214600,166.098877 173.215622,183.587341 173.282410,201.075150 
	C173.311630,208.726395 173.092865,216.423416 173.834244,224.016907 
	C175.027054,236.234039 178.572769,239.586288 191.061295,239.983139 
	C206.368378,240.469574 221.697235,240.352478 237.016602,240.343430 
	C248.671005,240.336548 260.335297,240.334503 271.975586,239.854462 
	C278.294220,239.593903 284.276703,237.883224 286.702301,229.882263 
z"/>
<path fill="#010101" opacity="1.000000" stroke="none" 
	d="
M215.999878,402.215240 
	C205.535004,401.888031 195.554459,401.801880 185.610397,401.154724 
	C178.121429,400.667328 174.595276,396.030884 174.056625,388.439484 
	C173.434586,379.672516 173.638245,370.839569 173.659821,362.035736 
	C173.712845,340.395416 173.774139,318.754181 174.036270,297.115814 
	C174.116791,290.467529 179.145752,285.218628 185.869400,285.050415 
	C205.163345,284.567688 224.465942,284.323334 243.766205,284.244141 
	C253.907227,284.202545 264.054169,284.605103 274.191467,284.990845 
	C281.295166,285.261169 285.811981,289.152863 286.971893,296.298431 
	C287.740784,301.035034 288.052155,305.891846 288.069275,310.696655 
	C288.149902,333.335541 288.060577,355.975067 288.023224,378.614349 
	C288.020203,380.445465 288.003845,382.279205 287.905731,384.107025 
	C287.195953,397.333954 282.737000,401.780029 269.438843,401.944031 
	C251.794098,402.161621 234.146347,402.136230 215.999878,402.215240 
z"/>
<path fill="#030403" opacity="1.000000" stroke="none" 
	d="
M286.547485,230.251282 
	C284.276703,237.883224 278.294220,239.593903 271.975586,239.854462 
	C260.335297,240.334503 248.671005,240.336548 237.016602,240.343430 
	C221.697235,240.352478 206.368378,240.469574 191.061295,239.983139 
	C178.572769,239.586288 175.027054,236.234039 173.834244,224.016907 
	C173.092865,216.423416 173.311630,208.726395 173.282410,201.075150 
	C173.215622,183.587341 173.214600,166.098877 173.300674,148.611252 
	C173.317810,145.131653 173.627350,141.619949 174.179276,138.183624 
	C175.294281,131.241364 178.117233,128.301743 185.031525,126.993073 
	C188.442307,126.347511 191.960754,126.000999 195.432129,125.988831 
	C218.914719,125.906509 242.398407,125.841904 265.880402,125.987320 
	C283.992218,126.099480 287.896423,130.025391 287.985260,148.052078 
	C288.100159,171.368835 288.073242,194.686874 287.953308,218.003586 
	C287.932922,221.965179 287.138916,225.922806 286.547485,230.251282 
M232.429001,170.497040 
	C233.399506,176.772064 233.698441,183.245789 235.483658,189.279785 
	C238.946457,200.984146 254.467392,205.142349 263.500183,196.119781 
	C273.521820,186.109451 272.333618,172.843628 271.225800,160.215851 
	C270.803650,155.403992 268.776978,150.281540 266.091980,146.219009 
	C261.355835,139.052979 253.472656,138.901382 246.051086,140.384354 
	C239.747650,141.643906 236.003891,146.311386 234.954559,152.785828 
	C234.048752,158.374710 233.264832,163.983353 232.429001,170.497040 
M195.406952,198.132797 
	C196.500931,198.487503 197.702744,198.658020 198.672165,199.225525 
	C207.999359,204.685608 220.731705,196.449081 222.415268,187.223969 
	C223.794571,179.666077 225.169464,171.837601 224.605774,164.273697 
	C224.083145,157.261032 223.193466,149.793091 217.307205,144.137405 
	C211.878098,138.920944 205.557617,139.398727 199.343842,140.434052 
	C193.311615,141.439117 189.688248,146.346802 188.271545,151.843704 
	C185.320816,163.292725 184.847412,175.060394 188.040024,186.523865 
	C189.170654,190.583557 192.435806,194.048782 195.406952,198.132797 
z"/>
<path fill="#6CE8C0" opacity="1.000000" stroke="none" 
	d="
M232.428009,170.040146 
	C233.264832,163.983353 234.048752,158.374710 234.954559,152.785828 
	C236.003891,146.311386 239.747650,141.643906 246.051086,140.384354 
	C253.472656,138.901382 261.355835,139.052979 266.091980,146.219009 
	C268.776978,150.281540 270.803650,155.403992 271.225800,160.215851 
	C272.333618,172.843628 273.521820,186.109451 263.500183,196.119781 
	C254.467392,205.142349 238.946457,200.984146 235.483658,189.279785 
	C233.698441,183.245789 233.399506,176.772064 232.428009,170.040146 
M261.082275,166.229065 
	C259.809479,164.337387 259.896118,164.390579 258.698944,166.340591 
	C255.348465,171.798080 252.281403,177.487869 248.377853,182.524368 
	C246.237183,185.286316 245.056671,187.388779 247.647964,189.990707 
	C250.030563,192.383118 254.914459,191.383041 257.115143,188.604874 
	C262.262054,182.107300 261.062134,174.498703 261.082275,166.229065 
M251.748428,161.233566 
	C252.772766,159.593094 253.979919,158.035248 254.769440,156.288635 
	C255.541245,154.581253 256.658203,152.427643 256.171387,150.947586 
	C255.794159,149.800751 253.122894,148.706497 251.571472,148.831451 
	C249.766281,148.976852 247.428833,150.031952 246.435883,151.464203 
	C241.718811,158.268219 242.866196,165.997406 243.257599,175.077164 
	C246.459656,169.849762 248.902206,165.862274 251.748428,161.233566 
z"/>
<path fill="#6CE9C1" opacity="1.000000" stroke="none" 
	d="
M195.066711,197.959106 
	C192.435806,194.048782 189.170654,190.583557 188.040024,186.523865 
	C184.847412,175.060394 185.320816,163.292725 188.271545,151.843704 
	C189.688248,146.346802 193.311615,141.439117 199.343842,140.434052 
	C205.557617,139.398727 211.878098,138.920944 217.307205,144.137405 
	C223.193466,149.793091 224.083145,157.261032 224.605774,164.273697 
	C225.169464,171.837601 223.794571,179.666077 222.415268,187.223969 
	C220.731705,196.449081 207.999359,204.685608 198.672165,199.225525 
	C197.702744,198.658020 196.500931,198.487503 195.066711,197.959106 
M213.985626,180.048706 
	C213.985626,175.072678 213.985626,170.096634 213.985626,165.120605 
	C213.616928,165.064102 213.248230,165.007599 212.879547,164.951080 
	C208.220886,172.292831 203.562241,179.634583 198.132263,188.191910 
	C201.243362,189.311890 203.830811,190.885727 206.505829,191.052155 
	C210.292114,191.287750 211.668869,188.329010 212.255356,184.913864 
	C212.492798,183.531250 213.353989,182.255737 213.985626,180.048706 
M203.981583,163.367569 
	C206.326736,159.613647 208.671890,155.859741 211.007736,152.120697 
	C206.979218,148.096970 201.701401,147.218033 199.964325,150.704041 
	C196.304672,158.048340 194.925797,165.912445 196.687073,175.093582 
	C199.307877,170.848160 201.426544,167.416183 203.981583,163.367569 
z"/>
<path fill="#040A07" opacity="1.000000" stroke="none" 
	d="
M261.095886,166.660889 
	C261.062134,174.498703 262.262054,182.107300 257.115143,188.604874 
	C254.914459,191.383041 250.030563,192.383118 247.647964,189.990707 
	C245.056671,187.388779 246.237183,185.286316 248.377853,182.524368 
	C252.281403,177.487869 255.348465,171.798080 258.698944,166.340591 
	C259.896118,164.390579 259.809479,164.337387 261.095886,166.660889 
z"/>
<path fill="#040B09" opacity="1.000000" stroke="none" 
	d="
M251.546600,161.554169 
	C248.902206,165.862274 246.459656,169.849762 243.257599,175.077164 
	C242.866196,165.997406 241.718811,158.268219 246.435883,151.464203 
	C247.428833,150.031952 249.766281,148.976852 251.571472,148.831451 
	C253.122894,148.706497 255.794159,149.800751 256.171387,150.947586 
	C256.658203,152.427643 255.541245,154.581253 254.769440,156.288635 
	C253.979919,158.035248 252.772766,159.593094 251.546600,161.554169 
z"/>
<path fill="#040B08" opacity="1.000000" stroke="none" 
	d="
M213.958496,180.490097 
	C213.353989,182.255737 212.492798,183.531250 212.255356,184.913864 
	C211.668869,188.329010 210.292114,191.287750 206.505829,191.052155 
	C203.830811,190.885727 201.243362,189.311890 198.132263,188.191910 
	C203.562241,179.634583 208.220886,172.292831 212.879547,164.951080 
	C213.248230,165.007599 213.616928,165.064102 213.985626,165.120605 
	C213.985626,170.096634 213.985626,175.072678 213.958496,180.490097 
z"/>
<path fill="#060D0B" opacity="1.000000" stroke="none" 
	d="
M203.763397,163.675873 
	C201.426544,167.416183 199.307877,170.848160 196.687073,175.093582 
	C194.925797,165.912445 196.304672,158.048340 199.964325,150.704041 
	C201.701401,147.218033 206.979218,148.096970 211.007736,152.120697 
	C208.671890,155.859741 206.326736,159.613647 203.763397,163.675873 
z"/>
</svg>